# xmcd
#
# Track frame offsets: 
#        150
#        20585
#        44155
#
# Disc length: 886 seconds
#
# Revision: 0
# Processed by: cddbd v1.5.2PL0 Copyright (c) Steve Scherf et al.
# Submitted via: ExactAudioCopyFreeDBPlugin 1.0
#
DISCID=24037403
DTITLE=Dillon O'Brian - Something Almost Sacred
DYEAR=1994
DGENRE=Soul
TTITLE0=Something Almost Sacred (Radio Version)
TTITLE1=Something Almost Sacred (LP Version)
TTITLE2=Something Almost Sacred (Live Version)
EXTD=
EXTT0=
EXTT1=
EXTT2=
PLAYORDER=
